<?xml version="1.0" standalone="no"?>
<!DOCTYPE svg PUBLIC "-//W3C//DTD SVG 20010904//EN"
 "http://www.w3.org/TR/2001/REC-SVG-20010904/DTD/svg10.dtd">
<svg version="1.0" xmlns="http://www.w3.org/2000/svg"
 width="1311.000000pt" height="1939.000000pt" viewBox="0 0 1311.000000 1939.000000"
 preserveAspectRatio="xMidYMid meet">

<g transform="translate(0.000000,1939.000000) scale(0.100000,-0.100000)"
fill="#000000" stroke="none">
<path d="M4839 15073 c-2368 -2370 -4334 -4344 -4369 -4388 -242 -306 -399
-680 -451 -1075 -16 -122 -16 -388 0 -510 51 -388 197 -743 432 -1052 110
-143 1602 -1631 1736 -1731 302 -225 643 -364 1011 -412 131 -17 400 -20 522
-5 376 47 741 194 1042 421 92 69 692 659 794 781 245 291 410 665 469 1063
20 131 23 418 6 550 -57 441 -251 865 -535 1170 l-74 80 -869 -866 c-540 -540
-885 -876 -913 -892 -98 -55 -223 -57 -327 -3 -69 35 -838 810 -876 883 -36
68 -67 192 -67 267 0 80 23 174 62 255 29 62 188 223 2408 2446 1307 1309
2421 2432 2477 2495 150 172 285 339 401 495 767 1032 1251 2260 1391 3530 31
282 59 805 43 805 -4 0 -1945 -1938 -4313 -4307z"/>
<path d="M9480 13500 c-434 -33 -847 -197 -1189 -472 -95 -77 -677 -659 -753
-753 -393 -491 -555 -1134 -437 -1744 74 -384 266 -764 522 -1036 l66 -70 878
876 c986 984 915 922 1068 923 144 1 135 7 588 -443 258 -257 410 -415 432
-451 102 -167 109 -365 19 -550 -36 -73 -85 -124 -2433 -2475 -2425 -2428
-2502 -2507 -2748 -2823 -742 -952 -1235 -2072 -1437 -3263 -57 -335 -88 -647
-101 -1034 l-7 -180 4312 4310 c2371 2371 4342 4348 4379 4395 238 297 396
668 446 1045 17 134 20 417 5 532 -53 399 -195 745 -431 1055 -99 129 -1588
1618 -1717 1717 -422 321 -949 481 -1462 441z"/>
</g>
</svg>
