<svg id="Logo" xmlns="http://www.w3.org/2000/svg" xmlns:xlink="http://www.w3.org/1999/xlink" viewBox="0 0 619.19 619.19"><defs><style>.cls-1{fill:#fff;}.cls-2{clip-path:url(#clip-path);}</style><clipPath id="clip-path" transform="translate(-190.4 -190.4)"><circle class="cls-1" cx="500" cy="500" r="309.6"/></clipPath></defs><circle class="cls-1" cx="309.6" cy="309.6" r="309.6"/><g class="cls-2"><path d="M438.12,733h0L642.69,528.43a51.09,51.09,0,0,0,0-72.25l-32.1-32.1h0a51.09,51.09,0,0,0-72.25,0h0L527.72,434.7a51.09,51.09,0,0,0,0,72.25l40.85-40.85a8.34,8.34,0,0,1,11.78,0L597,482.75a13.54,13.54,0,0,1,0,19.12L489.21,609.66A174.44,174.44,0,0,0,438.12,733Z" transform="translate(-190.4 -190.4)"/><path d="M562.88,268h0L358.31,472.57a51.09,51.09,0,0,0,0,72.25l32.1,32.1h0a51.09,51.09,0,0,0,72.25,0h0l10.62-10.62a51.09,51.09,0,0,0,0-72.25L432.43,534.9a8.34,8.34,0,0,1-11.78,0L404,518.25a13.54,13.54,0,0,1,0-19.12l107.8-107.79A174.44,174.44,0,0,0,562.88,268Z" transform="translate(-190.4 -190.4)"/></g></svg>